HIERARCHY
ROOT Hips
{
    OFFSET 0.000000 0.000000 0.000000
    CHANNELS 6 Xposition Yposition Zposition Zrotation Xrotation Yrotation
    JOINT Spine
    {
        OFFSET -0.000000 14.517291 0.000000
        CHANNELS 3 Zrotation Xrotation Yrotation
        JOINT Spine1
        {
            OFFSET -0.000000 37.558300 0.000000
            CHANNELS 3 Zrotation Xrotation Yrotation
            JOINT Neck
            {
                OFFSET -0.000000 37.404057 3.400369
                CHANNELS 3 Zrotation Xrotation Yrotation
                JOINT Head
                {
                    OFFSET -0.000000 24.785618 -3.540803
                    CHANNELS 3 Zrotation Xrotation Yrotation
                    End Site
                    {
                        OFFSET -0.000000 35.408028 0.000000
                    }
                }
            }
            JOINT LeftShoulder
            {
                OFFSET 6.992933 33.973492 -0.192664
                CHANNELS 3 Zrotation Xrotation Yrotation
                JOINT LeftArm
                {
                    OFFSET 21.527611 0.000000 0.000000
                    CHANNELS 3 Zrotation Xrotation Yrotation
                    JOINT LeftForeArm
                    {
                        OFFSET 56.353916 0.000000 0.000000
                        CHANNELS 3 Zrotation Xrotation Yrotation
                        JOINT LeftHand
                        {
                            OFFSET 47.774071 0.000000 0.000000
                            CHANNELS 3 Zrotation Xrotation Yrotation
                            End Site
                            {
                                OFFSET 26.556021 0.000000 0.000000
                            }
                        }
                    }
                }
            }
            JOINT RightShoulder
            {
                OFFSET -7.065357 33.973492 -0.192664
                CHANNELS 3 Zrotation Xrotation Yrotation
                JOINT RightArm
                {
                    OFFSET -21.527611 0.000000 0.000000
                    CHANNELS 3 Zrotation Xrotation Yrotation
                    JOINT RightForeArm
                    {
                        OFFSET -56.353916 0.000000 0.000000
                        CHANNELS 3 Zrotation Xrotation Yrotation
                        JOINT RightHand
                        {
                            OFFSET -47.774071 0.000000 0.000000
                            CHANNELS 3 Zrotation Xrotation Yrotation
                            End Site
                            {
                                OFFSET -26.556021 0.000000 0.000000
                            }
                        }
                    }
                }
            }
        }
    }
    JOINT LeftUpLeg
    {
        OFFSET 17.704014 0.000000 0.000000
        CHANNELS 3 Zrotation Xrotation Yrotation
        JOINT LeftLeg
        {
            OFFSET -0.000000 -81.181816 0.000000
            CHANNELS 3 Zrotation Xrotation Yrotation
            JOINT LeftFoot
            {
                OFFSET -0.000000 -62.821102 0.000000
                CHANNELS 3 Zrotation Xrotation Yrotation
                JOINT LeftToeBase
                {
                    OFFSET -0.000000 -11.507608 26.556021
                    CHANNELS 3 Zrotation Xrotation Yrotation
                    End Site
                    {
                        OFFSET -0.000000 0.000000 7.081605
                    }
                }
            }
        }
    }
    JOINT RightUpLeg
    {
        OFFSET -17.704014 0.000000 0.000000
        CHANNELS 3 Zrotation Xrotation Yrotation
        JOINT RightLeg
        {
            OFFSET -0.000000 -81.181816 0.000000
            CHANNELS 3 Zrotation Xrotation Yrotation
            JOINT RightFoot
            {
                OFFSET -0.000000 -62.821102 0.000000
                CHANNELS 3 Zrotation Xrotation Yrotation
                JOINT RightToeBase
                {
                    OFFSET -0.000000 -11.507608 26.556021
                    CHANNELS 3 Zrotation Xrotation Yrotation
                    End Site
                    {
                        OFFSET -0.000000 0.000000 7.081605
                    }
                }
            }
        }
    }
}
MOTION
Frames:    13
Frame Time:    0.008333
31.718849    156.879547    -79.501602    -7.072005    3.016719    29.393652    2.270211    -0.703881    -2.357862    -8.100021    -2.787404    -0.987024    15.859762    1.487835    1.502483    2.750183    -5.289001    -0.080760    14.467763    -5.203485    -16.021843    -26.289040    -26.192186    -42.661098    -12.915401    -40.928497    -97.609741    -32.881233    -43.282375    -38.138630    -13.021196    -1.183186    -7.695305    18.460680    17.571188    15.580567    12.397418    14.248446    -0.244277    9.149246    15.405229    14.544869    15.724122    -10.657145    4.654479    -13.875739    40.142769    -13.328279    3.553450    -28.937567    41.636848    0.000000    0.000000    0.000000    -10.085895    -31.258505    -5.465089    13.081639    28.749100    -11.321277    -1.846546    3.394979    -16.470373    0.000000    0.000000    0.000000    
31.851812    156.662384    -79.842529    -7.039143    3.042939    29.269089    2.229751    -0.688612    -2.328202    -8.055999    -2.821028    -0.978182    15.827180    1.548190    1.510375    2.748430    -5.301661    -0.059557    14.442148    -5.175900    -15.965483    -26.285337    -26.270151    -42.599819    -13.010819    -40.788708    -97.665764    -32.863659    -43.246593    -38.133461    -13.065131    -1.078034    -7.642922    18.444181    17.569309    15.734062    12.285076    14.157803    -0.219250    9.184867    15.320002    14.587296    15.574060    -10.785997    4.722474    -13.922978    40.496250    -13.215569    3.894742    -29.284647    41.688560    0.000000    0.000000    0.000000    -10.303246    -31.505753    -5.632130    13.171042    29.041481    -11.350693    -1.802743    3.335863    -16.320490    0.000000    0.000000    0.000000    
31.977283    156.436874    -80.157433    -7.034860    3.041517    29.191631    2.240433    -0.706437    -2.286996    -8.100903    -2.785311    -0.963150    15.893870    1.541764    1.513554    2.756802    -5.272521    -0.065363    14.483864    -5.178698    -15.943179    -26.226393    -26.188503    -42.584648    -12.925493    -40.888290    -97.656792    -32.878422    -43.258415    -38.153687    -13.018950    -1.150264    -7.599548    18.427582    17.499628    15.742869    12.298903    14.137787    -0.238982    9.063119    15.298377    14.733232    15.496232    -10.981277    4.651816    -14.144812    40.849556    -12.957599    4.253928    -29.536869    41.821270    0.000000    0.000000    0.000000    -10.494250    -31.719519    -5.864093    13.241816    29.332195    -11.359742    -1.788566    3.248914    -16.150663    0.000000    0.000000    0.000000    
32.092373    156.218384    -80.470383    -7.028394    3.023125    29.108812    2.195524    -0.699323    -2.266856    -7.987984    -2.743147    -0.950617    15.818093    1.530398    1.523116    2.789486    -5.278416    -0.040427    14.430182    -5.181486    -15.901392    -26.143263    -26.170528    -42.516243    -12.965042    -40.900143    -97.715073    -33.047382    -43.224945    -38.330158    -13.099213    -1.110727    -7.585782    18.438589    17.386572    15.872504    12.242565    14.125674    -0.240914    9.302688    15.306870    14.612774    15.440820    -11.155483    4.548049    -14.433167    41.177803    -12.677341    4.637852    -29.764160    41.998825    0.000000    0.000000    0.000000    -10.767866    -31.866995    -5.855848    13.666751    29.461029    -11.470690    -1.869041    3.209438    -16.217554    0.000000    0.000000    0.000000    
32.198490    155.982788    -80.782387    -7.028084    2.995035    29.064793    2.207862    -0.674893    -2.282462    -8.006744    -2.768437    -0.957850    15.847329    1.596297    1.524318    2.804615    -5.271371    -0.031147    14.456535    -5.186664    -15.873590    -26.115124    -26.143131    -42.474640    -12.919849    -40.928478    -97.692352    -32.932938    -43.273548    -38.196106    -13.087110    -1.108187    -7.514295    18.431425    17.436800    15.919789    12.159389    14.095042    -0.200767    9.337372    15.277918    14.631351    15.403217    -11.333510    4.447019    -14.691081    41.518383    -12.516395    5.064571    -30.012701    42.217388    0.000000    0.000000    0.000000    -10.960502    -32.050537    -6.059945    13.787971    29.734152    -11.505177    -1.869187    3.114357    -16.091839    0.000000    0.000000    0.000000    
32.316338    155.755569    -81.077393    -7.019482    2.952884    29.016535    2.206585    -0.680208    -2.266882    -7.985156    -2.706876    -0.947891    15.819580    1.571181    1.528139    2.853452    -5.227212    -0.018878    14.457560    -5.168047    -15.849273    -26.109852    -26.214602    -42.477806    -12.921827    -40.857349    -97.671989    -32.952797    -43.188461    -38.231995    -13.093990    -1.171029    -7.450248    18.427320    17.515526    15.899423    12.078364    14.016268    -0.161777    9.335861    15.193061    14.603916    15.378320    -11.463767    4.303885    -15.011488    41.802563    -12.322742    5.479588    -30.258509    42.439838    0.000000    0.000000    0.000000    -11.150603    -32.205631    -6.272224    13.917052    29.993303    -11.557905    -1.908961    3.038095    -15.959435    0.000000    0.000000    0.000000    
32.440514    155.536469    -81.368553    -7.005369    2.901892    28.968573    2.204556    -0.662217    -2.258596    -7.957942    -2.671990    -0.941994    15.806698    1.593652    1.525114    2.877216    -5.234870    -0.012402    14.427742    -5.222183    -15.834157    -26.074823    -26.145702    -42.437992    -12.957674    -40.890064    -97.733452    -32.955288    -43.269211    -38.201866    -13.100140    -1.132734    -7.460380    18.390642    17.456013    16.037392    12.074289    13.972402    -0.220271    9.337038    15.156915    14.621350    15.345851    -11.567883    4.197542    -15.294883    42.066128    -12.136420    5.885341    -30.488762    42.619625    0.000000    0.000000    0.000000    -11.346038    -32.341114    -6.494825    14.038065    30.246126    -11.591349    -1.914399    2.956811    -15.823614    0.000000    0.000000    0.000000    
32.572758    155.320404    -81.641006    -6.959379    2.819047    28.942312    2.197349    -0.606353    -2.232973    -7.965909    -2.656790    -0.932218    15.830143    1.596245    1.499529    2.875571    -5.179079    -0.043480    14.428169    -5.211851    -15.878099    -26.063202    -26.194210    -42.424389    -13.037490    -40.802563    -97.773880    -32.881393    -43.294136    -38.151779    -13.090981    -1.153341    -7.407866    18.400047    17.323311    15.968238    12.137902    13.989109    -0.218610    9.086056    15.150714    14.730453    15.311276    -11.604694    4.090567    -15.593844    42.291458    -11.993284    6.336847    -30.689844    42.815044    0.000000    0.000000    0.000000    -11.562483    -32.413105    -6.757410    14.158119    30.492519    -11.612168    -1.952453    2.862037    -15.684710    0.000000    0.000000    0.000000    
32.705696    155.111465    -81.903572    -6.889763    2.742887    28.889151    2.153347    -0.612399    -2.193746    -7.954736    -2.522473    -0.909508    15.726155    1.570021    1.465883    3.065552    -5.150234    -0.033253    14.419966    -5.256951    -15.854447    -26.061899    -26.143532    -42.481106    -12.984974    -40.870193    -97.712807    -32.954254    -43.279812    -38.161228    -13.123384    -1.162944    -7.409534    18.421534    17.462757    16.017553    12.036299    13.920770    -0.186247    9.248147    15.090471    14.615467    15.243155    -11.609966    4.108128    -15.741615    42.515114    -12.013688    6.741451    -30.894703    42.981361    0.000000    0.000000    0.000000    -11.785358    -32.485203    -7.011430    14.260693    30.745043    -11.624162    -1.986115    2.775787    -15.524524    0.000000    0.000000    0.000000    
32.826881    154.924591    -82.163635    -6.836280    2.688235    28.852631    2.104415    -0.588284    -2.176700    -7.935707    -2.500827    -0.901713    15.647758    1.585698    1.423670    3.184996    -5.104218    -0.043196    14.406819    -5.252375    -15.876400    -26.076160    -26.185179    -42.452217    -13.039889    -40.767513    -97.747650    -32.972908    -43.221031    -38.197006    -13.124311    -1.144860    -7.397120    18.425322    17.429667    16.031614    12.042303    13.951263    -0.149397    9.287455    15.114996    14.528020    15.174562    -11.654681    4.177560    -15.818301    42.754196    -12.068512    7.074520    -31.080650    43.086147    0.000000    0.000000    0.000000    -12.005370    -32.566444    -7.308585    14.330969    30.977087    -11.627494    -2.001796    2.713873    -15.328202    0.000000    0.000000    0.000000    
32.948544    154.746597    -82.416710    -6.767426    2.642613    28.811710    2.048590    -0.597090    -2.150081    -7.921024    -2.441758    -0.888386    15.262601    1.573977    1.348208    3.723435    -5.048552    0.028130    14.358102    -5.261557    -15.881467    -26.006384    -26.072691    -42.441128    -12.975716    -40.901779    -97.718086    -33.061180    -43.249889    -38.258556    -13.170296    -1.123225    -7.367739    18.484138    17.413315    16.026009    12.040091    13.923830    -0.121251    9.276462    15.082389    14.514388    15.083361    -11.696705    4.252907    -15.873463    42.986256    -12.093500    7.347647    -31.266066    43.139881    0.000000    0.000000    0.000000    -12.236459    -32.643955    -7.575739    14.412740    31.190336    -11.698882    -2.030567    2.657754    -15.112856    0.000000    0.000000    0.000000    
33.072876    154.583649    -82.670761    -6.681066    2.624426    28.777952    1.971022    -0.613144    -2.099392    -7.978245    -2.366826    -0.867447    15.665288    1.504943    1.394308    3.259807    -4.939975    -0.078018    14.414783    -5.270020    -15.890180    -26.065828    -26.129219    -42.499702    -13.078263    -40.757584    -97.768646    -32.967598    -43.234016    -38.263191    -13.124724    -1.150226    -7.458778    18.482412    17.496449    16.078619    12.017834    13.891325    -0.102780    9.301575    15.057589    14.593707    14.954330    -11.778127    4.315528    -15.926037    43.237865    -12.069369    7.576321    -31.411715    43.168491    0.000000    0.000000    0.000000    -12.499294    -32.732704    -7.853175    14.471027    31.406992    -11.718494    -2.028636    2.600080    -14.908252    0.000000    0.000000    0.000000    
33.178772    154.433441    -82.908997    -6.607251    2.599193    28.771582    1.898323    -0.620374    -2.095454    -8.018890    -2.346209    -0.865454    15.688674    1.513033    1.367275    3.293547    -4.876811    -0.103796    14.434899    -5.269407    -15.888637    -26.077343    -26.039816    -42.526344    -13.001702    -40.861332    -97.757164    -32.940647    -43.301922    -38.145973    -13.081167    -1.072151    -7.426948    18.528688    17.445692    16.045465    11.998489    13.865833    -0.060648    9.172257    15.021050    14.710622    14.850813    -11.895941    4.381567    -15.981912    43.543831    -12.047189    7.751748    -31.545166    43.190636    0.000000    0.000000    0.000000    -12.704547    -32.804314    -8.249150    14.368088    31.632637    -11.676172    -2.001750    2.535239    -14.627156    0.000000    0.000000    0.000000    
